<svg width="50" height="50" viewBox="0 0 50 50" fill="none" xmlns="http://www.w3.org/2000/svg">
<g clip-path="url(#clip0_104_2)">
<path d="M8.95619 46.4062C8.71244 47.7937 10.0812 48.8781 11.2874 48.2593L25.0062 41.2093L38.7218 48.2593C39.9281 48.8781 41.2968 47.7937 41.0531 46.4093L38.4593 31.6281L49.4656 21.1406C50.4968 20.1593 49.9656 18.3656 48.5843 18.1718L33.2781 15.9968L26.4531 2.47497C26.3231 2.20088 26.1179 1.9693 25.8615 1.80714C25.6051 1.64498 25.308 1.5589 25.0046 1.5589C24.7013 1.5589 24.4041 1.64498 24.1477 1.80714C23.8913 1.9693 23.6862 2.20088 23.5562 2.47497L16.7312 16L1.42494 18.175C0.0468174 18.3687 -0.487558 20.1625 0.540567 21.1437L11.5499 31.6312L8.95619 46.4125V46.4062ZM24.2843 37.7593L12.7656 43.6781L14.9343 31.3125C14.9851 31.0278 14.9652 30.7351 14.8764 30.4599C14.7876 30.1847 14.6326 29.9356 14.4249 29.7343L5.34369 21.0781L18.0062 19.2781C18.2684 19.2385 18.5171 19.1359 18.731 18.9792C18.9449 18.8225 19.1176 18.6162 19.2343 18.3781L24.9999 6.94685L30.7718 18.3781C30.8886 18.6162 31.0613 18.8225 31.2752 18.9792C31.489 19.1359 31.7377 19.2385 31.9999 19.2781L44.6624 21.075L35.5812 29.7312C35.3731 29.9328 35.2177 30.1824 35.1289 30.4582C35.0401 30.734 35.0205 31.0273 35.0718 31.3125L37.2406 43.6781L25.7218 37.7593C25.4991 37.6445 25.2521 37.5846 25.0015 37.5846C24.7509 37.5846 24.5039 37.6445 24.2812 37.7593H24.2843Z" fill="#FFC700"/>
</g>
<defs>
<clipPath id="clip0_104_2">
<rect width="50" height="50" fill="white"/>
</clipPath>
</defs>
</svg>
